<svg id="Layer_1" data-name="Layer 1" xmlns="http://www.w3.org/2000/svg" viewBox="0 0 319.49 323.9"><g id="EZui7l"><path d="M109.27,88.77C102.41,81,97.17,72.49,94.7,62.68A119.38,119.38,0,0,1,91.89,44c-.44-4.93,3-8.2,8-8,27,.94,46.82,13.59,59.71,37.25.43.8.81,1.62,1.08,2.17,3.49-5.84,6.75-11.92,10.6-17.6a103.23,103.23,0,0,1,27.89-27.54c4.11-2.79,8.5-2.26,11.05,1.3s1.67,8.15-2.47,11Q179.27,62.32,170,95.68c-.31,1.12-.55,2.25-.8,3.39a11.76,11.76,0,0,0-.1,1.41c2.86-1.4,5.45-2.63,8-3.93,6.61-3.36,13.28-6.48,20.71-7.65,11.41-1.81,21.79,1.2,31.46,7,16.08,9.6,25.94,24,31.28,41.68,5.74,19,5.81,38.19,2,57.5-4.28,21.8-12.38,42-25.51,60.07-7.48,10.27-16.25,19.18-27.93,24.7-12.61,6-25.18,6-37.62-.6-2.5-1.32-5-2.61-7.56-3.83a9.21,9.21,0,0,0-8.41,0c-1.94,1-3.91,1.85-5.79,2.91-17.19,9.59-33.41,7.07-48.76-4.14-13.07-9.54-22.15-22.42-29.4-36.64-11.39-22.35-17.77-46-17.15-71.23.47-18.7,4.56-36.44,15.63-52,9.36-13.12,21.81-21.71,37.7-25.07C108.13,89.18,108.51,89,109.27,88.77ZM69.35,168.3c-.09,25.14,8.61,53.39,22.3,73.89,5.68,8.5,12.17,16.24,20.95,21.75,9.62,6,19.48,7.21,29.65,1.31,2-1.17,4.12-2.18,6.21-3.19a24.38,24.38,0,0,1,22.55,0c2.53,1.24,5,2.55,7.53,3.87,7.56,4,15.24,4.13,23,.73,7.41-3.23,13.37-8.38,18.53-14.45,13.52-15.92,21.7-34.49,26.5-54.64,4.45-18.68,5-37.39-.54-56-4.29-14.27-12.18-26-25.42-33.51-9.77-5.58-19.78-6.32-30-1.42-4.8,2.28-9.53,4.72-14.36,6.93-10.29,4.7-20.74,5-31.18.57-5.5-2.34-10.83-5.07-16.25-7.58-9.81-4.53-19.44-4.14-29,1a51.58,51.58,0,0,0-19.92,19.1C71.93,140,69.58,154.62,69.35,168.3ZM107.76,52c.78,19.18,26,44.2,42.89,42.73C148.52,73.72,128.47,54.05,107.76,52Z"/></g></svg>